REM DIRINDEX 1\3,1\4,1\5,1\6,1\2\7,1\2\8,1\2\9,1\10
REM DIRNAME cjc056,folder01,folder02,folder03,folder04,folder05,folder06,folder07,folder08,folder09
TITLE ""
FILE "2-40 Level 5-874-884.mp3" MP3
  TRACK 01 AUDIO
    TITLE "0:"
    INDEX 01 00:00:00
  TRACK 02 AUDIO
    TITLE "10:cjc056_2962"
    INDEX 01 00:00:03
  TRACK 03 AUDIO
    TITLE "0:"
    INDEX 01 00:03:10
  TRACK 04 AUDIO
    TITLE "7:cjc056_2963"
    INDEX 01 00:03:59
  TRACK 05 AUDIO
    TITLE "0:"
    INDEX 01 00:05:05
  TRACK 06 AUDIO
    TITLE "8:cjc056_2964"
    INDEX 01 00:05:16
  TRACK 07 AUDIO
    TITLE "0:"
    INDEX 01 00:07:00
  TRACK 08 AUDIO
    TITLE "9:cjc056_2965"
    INDEX 01 00:07:13
  TRACK 09 AUDIO
    TITLE "0:"
    INDEX 01 00:09:44
  TRACK 10 AUDIO
    TITLE "7:cjc056_2966"
    INDEX 01 00:10:14
  TRACK 11 AUDIO
    TITLE "0:"
    INDEX 01 00:11:23
  TRACK 12 AUDIO
    TITLE "8:cjc056_2967"
    INDEX 01 00:11:39
  TRACK 13 AUDIO
    TITLE "0:"
    INDEX 01 00:13:26
  TRACK 14 AUDIO
    TITLE "9:cjc056_2968"
    INDEX 01 00:13:43
  TRACK 15 AUDIO
    TITLE "0:"
    INDEX 01 00:16:08
  TRACK 16 AUDIO
    TITLE "7:cjc056_2969"
    INDEX 01 00:16:49
  TRACK 17 AUDIO
    TITLE "0:"
    INDEX 01 00:17:63
  TRACK 18 AUDIO
    TITLE "8:cjc056_2970"
    INDEX 01 00:18:01
  TRACK 19 AUDIO
    TITLE "0:"
    INDEX 01 00:20:61
  TRACK 20 AUDIO
    TITLE "9:cjc056_2971"
    INDEX 01 00:20:69
  TRACK 21 AUDIO
    TITLE "0:"
    INDEX 01 00:22:70
  TRACK 22 AUDIO
    TITLE "7:cjc056_2972"
    INDEX 01 00:23:44
  TRACK 23 AUDIO
    TITLE "0:"
    INDEX 01 00:24:65
  TRACK 24 AUDIO
    TITLE "8:cjc056_2973"
    INDEX 01 00:25:01
  TRACK 25 AUDIO
    TITLE "0:"
    INDEX 01 00:27:57
  TRACK 26 AUDIO
    TITLE "9:cjc056_2974"
    INDEX 01 00:27:71
  TRACK 27 AUDIO
    TITLE "0:"
    INDEX 01 00:30:59
  TRACK 28 AUDIO
    TITLE "7:cjc056_2975"
    INDEX 01 00:31:33
  TRACK 29 AUDIO
    TITLE "0:"
    INDEX 01 00:32:52
  TRACK 30 AUDIO
    TITLE "8:cjc056_2976"
    INDEX 01 00:32:64
  TRACK 31 AUDIO
    TITLE "0:"
    INDEX 01 00:34:04
  TRACK 32 AUDIO
    TITLE "9:cjc056_2977"
    INDEX 01 00:34:16
  TRACK 33 AUDIO
    TITLE "0:"
    INDEX 01 00:37:10
  TRACK 34 AUDIO
    TITLE "7:cjc056_2978"
    INDEX 01 00:37:61
  TRACK 35 AUDIO
    TITLE "0:"
    INDEX 01 00:39:03
  TRACK 36 AUDIO
    TITLE "8:cjc056_2979"
    INDEX 01 00:39:15
  TRACK 37 AUDIO
    TITLE "0:"
    INDEX 01 00:41:30
  TRACK 38 AUDIO
    TITLE "9:cjc056_2980"
    INDEX 01 00:41:49
  TRACK 39 AUDIO
    TITLE "0:"
    INDEX 01 00:44:18
  TRACK 40 AUDIO
    TITLE "7:cjc056_2981"
    INDEX 01 00:44:73
  TRACK 41 AUDIO
    TITLE "0:"
    INDEX 01 00:46:07
  TRACK 42 AUDIO
    TITLE "8:cjc056_2982"
    INDEX 01 00:46:23
  TRACK 43 AUDIO
    TITLE "0:"
    INDEX 01 00:48:59
  TRACK 44 AUDIO
    TITLE "9:cjc056_2983"
    INDEX 01 00:48:71
  TRACK 45 AUDIO
    TITLE "0:"
    INDEX 01 00:51:36
  TRACK 46 AUDIO
    TITLE "7:cjc056_2984"
    INDEX 01 00:52:14
  TRACK 47 AUDIO
    TITLE "0:"
    INDEX 01 00:53:31
  TRACK 48 AUDIO
    TITLE "8:cjc056_2985"
    INDEX 01 00:53:43
  TRACK 49 AUDIO
    TITLE "0:"
    INDEX 01 00:55:36
  TRACK 50 AUDIO
    TITLE "9:cjc056_2986"
    INDEX 01 00:55:48
  TRACK 51 AUDIO
    TITLE "0:"
    INDEX 01 00:58:58
  TRACK 52 AUDIO
    TITLE "7:cjc056_2987"
    INDEX 01 00:59:32
  TRACK 53 AUDIO
    TITLE "0:"
    INDEX 01 01:00:60
  TRACK 54 AUDIO
    TITLE "8:cjc056_2988"
    INDEX 01 01:00:70
  TRACK 55 AUDIO
    TITLE "0:"
    INDEX 01 01:03:20
  TRACK 56 AUDIO
    TITLE "9:cjc056_2989"
    INDEX 01 01:03:27
  TRACK 57 AUDIO
    TITLE "0:"
    INDEX 01 01:06:73
  TRACK 58 AUDIO
    TITLE "7:cjc056_2990"
    INDEX 01 01:07:51
  TRACK 59 AUDIO
    TITLE "0:"
    INDEX 01 01:09:05
  TRACK 60 AUDIO
    TITLE "8:cjc056_2991"
    INDEX 01 01:09:16
  TRACK 61 AUDIO
    TITLE "0:"
    INDEX 01 01:11:27
  TRACK 62 AUDIO
    TITLE "9:cjc056_2992"
    INDEX 01 01:11:41
  TRACK 63 AUDIO
    TITLE "0:"
    INDEX 01 01:14:35
  TRACK 64 AUDIO
    TITLE "7:cjc056_2993"
    INDEX 01 01:15:11
  TRACK 65 AUDIO
    TITLE "0:"
    INDEX 01 01:16:44
  TRACK 66 AUDIO
    TITLE "8:cjc056_2994"
    INDEX 01 01:16:56
  TRACK 67 AUDIO
    TITLE "0:"
    INDEX 01 01:18:64
  TRACK 68 AUDIO
    TITLE "9:cjc056_2995"
    INDEX 01 01:19:03
  TRACK 69 AUDIO
    TITLE "0:"
    INDEX 01 01:22:62
